<?xml version="1.0" encoding="UTF-8" standalone="no"?>
<svg
   version="1.1"
   id="Layer_1"
   x="0px"
   y="0px"
   width="100%"
   viewBox="0 0 1080 1080"
   enable-background="new 0 0 1080 1080"
   xml:space="preserve"
   sodipodi:docname="dl-logo.svg"
   inkscape:version="1.2.1 (9c6d41e, 2022-07-14)"
   xmlns:inkscape="http://www.inkscape.org/namespaces/inkscape"
   xmlns:sodipodi="http://sodipodi.sourceforge.net/DTD/sodipodi-0.dtd"
   xmlns="http://www.w3.org/2000/svg"
   xmlns:svg="http://www.w3.org/2000/svg"><defs
   id="defs17" /><sodipodi:namedview
   id="namedview15"
   pagecolor="#505050"
   bordercolor="#ffffff"
   borderopacity="1"
   inkscape:showpageshadow="0"
   inkscape:pageopacity="0"
   inkscape:pagecheckerboard="1"
   inkscape:deskcolor="#505050"
   showgrid="false"
   inkscape:zoom="0.21851852"
   inkscape:cx="540"
   inkscape:cy="540"
   inkscape:window-width="1309"
   inkscape:window-height="456"
   inkscape:window-x="0"
   inkscape:window-y="38"
   inkscape:window-maximized="0"
   inkscape:current-layer="Layer_1" />

<path
   fill="#22272B"
   opacity="1.000000"
   stroke="none"
   d=" M232.003357,682.000000   C232.003433,564.668396 232.002838,447.836761 232.004791,331.005157   C232.004959,321.014435 232.012863,321.005096 241.818115,321.005005   C441.315186,321.003204 640.812256,321.003601 840.309326,321.004547   C841.642578,321.004547 842.980225,321.090698 844.308350,321.011810   C848.320374,320.773560 850.217773,322.570618 849.990540,326.631348   C849.897644,328.292297 849.996521,329.963593 849.996521,331.630188   C849.997620,471.628113 849.997986,611.626038 849.996643,751.623962   C849.996521,762.060730 849.990906,762.065735 839.683960,762.065796   C640.520264,762.066833 441.356506,762.066833 242.192780,762.065735   C232.012604,762.065674 232.006531,762.060120 232.004822,751.999084   C232.000870,728.832703 232.003433,705.666382 232.003357,682.000000  M806.500000,748.986816   C813.165344,748.986755 819.830627,748.988708 826.495972,748.986328   C836.990173,748.982544 836.995850,748.981323 836.995911,738.684875   C836.997253,607.037354 836.997192,475.389801 836.996277,343.742249   C836.996216,333.002838 836.992493,332.998138 826.431458,332.998077   C636.125793,332.997131 445.820099,332.997131 255.514420,332.998138   C245.030777,332.998199 245.025238,333.003174 245.025131,343.307739   C245.023834,474.955292 245.023956,606.602844 245.024796,738.250366   C245.024857,748.981750 245.028458,748.986023 255.579926,748.986084   C438.886627,748.987000 622.193298,748.986755 806.500000,748.986816  z"
   id="path4" />

<path
   fill="#22272B"
   opacity="1.000000"
   stroke="none"
   d=" M357.999146,571.000000   C357.999542,525.513794 357.997681,480.527557 358.002228,435.541351   C358.003174,426.010834 358.014038,426.003601 367.767700,426.001404   C396.592194,425.994843 425.431366,425.421417 454.236969,426.157593   C481.492523,426.854156 506.565430,434.894318 528.039124,452.454620   C550.645874,470.941406 562.675415,495.119385 567.176819,523.650513   C570.591431,545.293518 569.091675,566.489807 562.093384,587.113220   C550.638428,620.870422 527.928894,643.815063 494.232666,655.794495   C479.649292,660.979004 464.679932,663.204834 449.202057,663.072571   C421.712463,662.837646 394.219452,663.011414 366.727875,663.001587   C358.030670,662.998474 358.008698,662.980042 358.005157,654.474670   C357.993683,626.816467 357.999786,599.158203 357.999146,571.000000  M403.998718,577.500000   C403.999237,591.160767 403.988312,604.821472 404.004425,618.482239   C404.014313,626.849487 404.141052,627.094360 412.293945,626.965454   C425.928375,626.750000 439.560303,626.363953 453.192261,626.009094   C484.135681,625.203613 509.031982,606.353394 517.448547,576.882568   C523.812805,554.598083 523.894470,532.300537 516.546082,510.084747   C507.150421,481.679657 481.713470,463.066406 451.753693,463.012238   C439.259094,462.989655 426.764435,463.006622 414.269806,463.010406   C404.007996,463.013519 404.001160,463.016693 404.000183,473.044495   C403.996887,507.529663 403.998810,542.014832 403.998718,577.500000  z"
   id="path8" />
<path
   fill="#21262C"
   opacity="1.000000"
   stroke="none"
   d=" M745.000000,636.045044   C744.999268,642.700500 745.015625,648.863159 744.993530,655.025635   C744.965637,662.831848 744.810425,662.996216 736.703491,663.000854   C711.220520,663.015564 685.737488,663.008118 660.254517,663.007690   C644.431763,663.007446 628.608887,663.028503 612.786194,662.990845   C606.000549,662.974731 605.114563,662.205444 605.111572,655.637573   C605.077576,581.536499 605.078003,507.435455 605.112000,433.334381   C605.114929,426.934326 606.057983,426.057220 612.336365,426.022278   C622.662476,425.964783 632.989258,425.979889 643.315613,426.008820   C650.632202,426.029297 650.987549,426.362976 650.989441,433.629211   C651.005066,493.422638 650.995056,553.216064 651.004517,613.009460   C651.006531,625.833313 650.047241,625.004456 662.812988,625.006775   C686.630432,625.011047 710.447876,625.006714 734.265320,625.008545   C744.983032,625.009399 744.983032,625.012268 745.000000,636.045044  z"
   id="path10" />

</svg>
